<svg width="150" height="23" viewBox="0 0 150 23" fill="none" xmlns="http://www.w3.org/2000/svg">
<g clip-path="url(#clip0_68_15)">
<path d="M59.8158 11.5C59.8158 17.8513 54.7406 23 48.4801 23C42.2195 23 37.1443 17.8513 37.1443 11.5C37.1443 5.14873 42.2195 0 48.4801 0C54.7406 0 59.8158 5.14873 59.8158 11.5Z" fill="url(#paint0_linear_68_15)"/>
<path d="M74.2813 22.9416C72.7647 22.9416 71.3417 22.6567 70.0123 22.0869C68.7016 21.498 67.5501 20.6907 66.5577 19.665C65.5841 18.6203 64.8164 17.4046 64.2547 16.018C63.7117 14.6313 63.4402 13.1307 63.4402 11.5161C63.4402 9.92057 63.7117 8.43896 64.2547 7.07132C64.8164 5.68468 65.5841 4.4785 66.5577 3.45277C67.5501 2.40804 68.7016 1.59125 70.0123 1.00241C71.3229 0.413564 72.7459 0.119141 74.2813 0.119141C75.723 0.119141 76.9588 0.309091 77.9886 0.688991C79.0371 1.06889 80.0856 1.69573 81.1342 2.5695C81.284 2.68347 81.3963 2.80693 81.4712 2.9399C81.5648 3.05387 81.621 3.17734 81.6397 3.3103C81.6772 3.42427 81.6959 3.56674 81.6959 3.73769C81.6959 4.0986 81.5648 4.40252 81.3027 4.64945C81.0593 4.87739 80.7597 5.01036 80.4039 5.04835C80.0482 5.06734 79.7018 4.94387 79.3648 4.67794C78.672 4.0701 77.9511 3.60473 77.2022 3.28181C76.472 2.9589 75.4983 2.79744 74.2813 2.79744C73.1766 2.79744 72.1374 3.02538 71.1638 3.48126C70.1901 3.93714 69.3289 4.56397 68.5799 5.36176C67.8497 6.15956 67.2786 7.09031 66.8667 8.15404C66.4548 9.19876 66.2488 10.3194 66.2488 11.5161C66.2488 12.7318 66.4548 13.8715 66.8667 14.9352C67.2786 15.98 67.8497 16.9012 68.5799 17.699C69.3289 18.4968 70.1901 19.1236 71.1638 19.5795C72.1374 20.0164 73.1766 20.2349 74.2813 20.2349C75.2362 20.2349 76.1349 20.0734 76.9775 19.7505C77.8388 19.4086 78.6626 18.9432 79.449 18.3543C79.7861 18.1074 80.1137 18.0029 80.432 18.0409C80.7691 18.0599 81.0499 18.1929 81.2746 18.4398C81.4993 18.6678 81.6116 18.9907 81.6116 19.4086C81.6116 19.5985 81.5742 19.7885 81.4993 19.9784C81.4244 20.1494 81.3121 20.3108 81.1623 20.4628C80.1512 21.2796 79.0652 21.8969 77.9043 22.3148C76.7622 22.7327 75.5545 22.9416 74.2813 22.9416Z" fill="#2B2B2B"/>
<path d="M96.4222 22.9416C94.7745 22.9416 93.2673 22.6662 91.9004 22.1154C90.5336 21.5455 89.354 20.7572 88.3616 19.7505C87.388 18.7247 86.6297 17.5186 86.0867 16.1319C85.5437 14.7263 85.2722 13.1877 85.2722 11.5161C85.2722 9.84459 85.5437 8.31549 86.0867 6.92885C86.6297 5.54222 87.388 4.34553 88.3616 3.3388C89.354 2.31306 90.5336 1.52477 91.9004 0.973917C93.2673 0.404066 94.7745 0.119141 96.4222 0.119141C98.0699 0.119141 99.5678 0.404066 100.916 0.973917C102.283 1.52477 103.462 2.31306 104.455 3.3388C105.447 4.34553 106.215 5.54222 106.758 6.92885C107.301 8.31549 107.572 9.84459 107.572 11.5161C107.572 13.1877 107.301 14.7263 106.758 16.1319C106.215 17.5186 105.447 18.7247 104.455 19.7505C103.462 20.7572 102.283 21.5455 100.916 22.1154C99.5678 22.6662 98.0699 22.9416 96.4222 22.9416ZM96.4222 20.2633C97.6392 20.2633 98.7533 20.0449 99.7644 19.608C100.794 19.1521 101.684 18.5348 102.433 17.756C103.182 16.9582 103.753 16.0275 104.146 14.9637C104.558 13.9 104.764 12.7508 104.764 11.5161C104.764 10.2815 104.558 9.13228 104.146 8.06856C103.753 7.00484 103.182 6.08358 102.433 5.30478C101.684 4.50699 100.794 3.88965 99.7644 3.45277C98.7533 3.01588 97.6392 2.79744 96.4222 2.79744C95.2052 2.79744 94.0817 3.01588 93.0519 3.45277C92.0408 3.88965 91.1608 4.50699 90.4119 5.30478C89.6817 6.08358 89.1106 7.00484 88.6987 8.06856C88.2867 9.13228 88.0808 10.2815 88.0808 11.5161C88.0808 12.7508 88.2867 13.9 88.6987 14.9637C89.1106 16.0275 89.6817 16.9582 90.4119 17.756C91.1608 18.5348 92.0408 19.1521 93.0519 19.608C94.0817 20.0449 95.2052 20.2633 96.4222 20.2633Z" fill="#2B2B2B"/>
<path fill-rule="evenodd" clip-rule="evenodd" d="M122.693 20.0221V21.1751C122.693 21.593 122.552 21.9444 122.271 22.2293C122.009 22.5143 121.663 22.6567 121.232 22.6567C120.82 22.6567 120.474 22.5143 120.193 22.2293C119.912 21.9444 119.772 21.593 119.772 21.1751V20.0324C118.754 19.9432 117.799 19.7542 116.907 19.4656C115.615 19.0477 114.492 18.4588 113.537 17.699C112.601 16.9202 111.87 16.0085 111.346 14.9637C110.841 13.919 110.588 12.7698 110.588 11.5161C110.588 10.2625 110.841 9.12277 111.346 8.09704C111.87 7.05231 112.601 6.15005 113.537 5.39025C114.492 4.61145 115.615 4.01311 116.907 3.59522C117.799 3.30657 118.754 3.11761 119.772 3.02834V3.90864L119.912 4.7919V5.42509C118.9 5.53002 117.973 5.76534 117.132 6.13105C115.971 6.64392 115.053 7.36573 114.379 8.29649C113.724 9.20825 113.396 10.2815 113.396 11.5161C113.396 12.7508 113.724 13.8335 114.379 14.7643C115.053 15.695 115.971 16.4169 117.132 16.9297C117.973 17.2954 118.9 17.5308 119.912 17.6357V5.42509C119.92 5.42425 119.928 5.42343 119.936 5.42261C120.336 5.38204 120.749 5.36175 121.176 5.36175C121.652 5.36175 122.111 5.38704 122.552 5.43762V17.6231C123.516 17.5127 124.396 17.2815 125.192 16.9297C126.372 16.4169 127.289 15.695 127.945 14.7643C128.619 13.8335 128.956 12.7508 128.956 11.5161C128.956 10.2815 128.619 9.20825 127.945 8.29649C127.289 7.36573 126.372 6.64392 125.192 6.13105C124.396 5.77925 123.516 5.5481 122.552 5.43762V4.7919L122.693 3.93713V3.03862C123.668 3.13169 124.586 3.31722 125.445 3.59522C126.737 4.01311 127.851 4.61145 128.787 5.39025C129.742 6.15005 130.472 7.05231 130.978 8.09704C131.502 9.12277 131.764 10.2625 131.764 11.5161C131.764 12.7698 131.502 13.919 130.978 14.9637C130.472 16.0085 129.742 16.9202 128.787 17.699C127.851 18.4588 126.737 19.0477 125.445 19.4656C124.586 19.7436 123.668 19.9291 122.693 20.0221ZM122.693 3.03862C122.66 3.03551 122.627 3.0325 122.595 3.0296C122.135 2.98879 121.662 2.96838 121.176 2.96838C120.695 2.96838 120.227 2.98837 119.772 3.02834V1.88567C119.772 1.44878 119.912 1.09737 120.193 0.831441C120.474 0.546516 120.82 0.404053 121.232 0.404053C121.663 0.404053 122.009 0.546516 122.271 0.831441C122.552 1.09737 122.693 1.44878 122.693 1.88567V3.03862Z" fill="#2B2B2B"/>
<path d="M119.772 3.90852L119.912 4.79178V5.42497L119.936 5.42249C120.336 5.38192 120.749 5.36163 121.176 5.36163C121.652 5.36163 122.111 5.38692 122.552 5.4375V4.79178L122.693 3.93701V3.0385C122.66 3.03539 122.627 3.03238 122.595 3.02948C122.135 2.98867 121.662 2.96826 121.176 2.96826C120.695 2.96826 120.227 2.98825 119.772 3.02822V3.90852Z" fill="#2B2B2B"/>
<path fill-rule="evenodd" clip-rule="evenodd" d="M140.114 22.2293C140.395 22.5143 140.741 22.6567 141.153 22.6567C141.565 22.6567 141.911 22.5143 142.192 22.2293C142.473 21.9444 142.613 21.593 142.613 21.1751V3.13934H148.652C149.045 3.13934 149.363 3.01587 149.607 2.76894C149.869 2.503 150 2.17059 150 1.7717C150 1.3728 149.869 1.04989 149.607 0.802949C149.363 0.537018 149.045 0.404053 148.652 0.404053H142.613V3.13934H139.693V0.404053H133.626C133.233 0.404053 132.905 0.537018 132.643 0.802949C132.4 1.04989 132.278 1.3728 132.278 1.7717C132.278 2.17059 132.4 2.503 132.643 2.76894C132.905 3.01587 133.233 3.13934 133.626 3.13934H139.693V21.1751C139.693 21.593 139.833 21.9444 140.114 22.2293Z" fill="#2B2B2B"/>
<path d="M142.613 0.404053H139.693V3.13934H142.613V0.404053Z" fill="#2B2B2B"/>
<path fill-rule="evenodd" clip-rule="evenodd" d="M26.6469 22.2293C26.9277 22.5143 27.2741 22.6567 27.6861 22.6567C28.098 22.6567 28.4444 22.5143 28.7252 22.2293C29.0061 21.9444 29.1465 21.593 29.1465 21.1751V3.13934H35.1849C35.5781 3.13934 35.8964 3.01587 36.1398 2.76894C36.402 2.503 36.533 2.17059 36.533 1.7717C36.533 1.3728 36.402 1.04989 36.1398 0.802949C35.8964 0.537018 35.5781 0.404053 35.1849 0.404053H29.1465V3.13934H26.2256V0.404053H20.1591C19.7659 0.404053 19.4382 0.537018 19.1761 0.802949C18.9327 1.04989 18.811 1.3728 18.811 1.7717C18.811 2.17059 18.9327 2.503 19.1761 2.76894C19.4382 3.01587 19.7659 3.13934 20.1591 3.13934H26.2256V21.1751C26.2256 21.593 26.366 21.9444 26.6469 22.2293Z" fill="#2B2B2B"/>
<path d="M29.1465 0.404053H26.2256V3.13934H29.1465V0.404053Z" fill="#2B2B2B"/>
<path fill-rule="evenodd" clip-rule="evenodd" d="M3.76347 22.3148C4.92434 22.7327 6.14139 22.9416 7.4146 22.9416C8.94995 22.9416 10.373 22.6567 11.6836 22.0869C12.9943 21.498 14.1364 20.6907 15.1101 19.665C16.1024 18.6203 16.8701 17.4046 17.4131 16.018C17.9748 14.6313 18.2557 13.1307 18.2557 11.5161C18.2557 9.92057 17.9748 8.43896 17.4131 7.07132C16.8701 5.68468 16.1024 4.4785 15.1101 3.45277C14.1364 2.40804 12.9943 1.59125 11.6836 1.00241C10.373 0.413564 8.94995 0.119141 7.4146 0.119141C5.9916 0.119141 4.75583 0.309091 3.7073 0.688991C2.6775 1.06889 1.62897 1.69573 0.561712 2.5695C0.411922 2.68347 0.29958 2.80693 0.224685 2.9399C0.14979 3.05387 0.0936188 3.17734 0.0561713 3.3103C0.0187238 3.42427 0 3.56674 0 3.73769C0 4.0986 0.121704 4.40252 0.365113 4.64945C0.627245 4.87739 0.936187 5.01036 1.29194 5.04835C1.66641 5.06734 2.0128 4.94387 2.33111 4.67794C3.04261 4.0701 3.76347 3.60473 4.4937 3.28181C5.22392 2.9589 6.19756 2.79744 7.4146 2.79744C8.5193 2.79744 9.55847 3.02538 10.5321 3.48126C11.5057 3.93714 12.3577 4.56397 13.0879 5.36176C13.8368 6.15956 14.4173 7.09031 14.8292 8.15404C15.0699 8.76443 15.2402 9.40076 15.3403 10.063H7.38652C7.01204 10.063 6.69374 10.1865 6.43161 10.4334C6.1882 10.6804 6.06649 10.9938 6.06649 11.3737C6.06649 11.7346 6.1882 12.048 6.43161 12.3139C6.69374 12.5609 7.01204 12.6843 7.38652 12.6843H15.381C15.2904 13.469 15.1064 14.2193 14.8292 14.9352C14.4173 15.98 13.8368 16.9012 13.0879 17.699C12.3577 18.4968 11.5057 19.1236 10.5321 19.5795C9.55847 20.0164 8.5193 20.2349 7.4146 20.2349C6.45969 20.2349 5.55159 20.0734 4.6903 19.7505C3.84773 19.4086 3.03325 18.9432 2.24685 18.3543C1.92855 18.1074 1.60088 18.0029 1.26385 18.0409C0.926825 18.0599 0.645969 18.1929 0.421284 18.4398C0.196599 18.6678 0.0842568 18.9907 0.0842568 19.4086C0.0842568 19.5985 0.121704 19.7885 0.196599 19.9784C0.271494 20.1494 0.383837 20.3108 0.533627 20.4628C1.54471 21.2796 2.62132 21.8969 3.76347 22.3148ZM15.381 12.6843H16.8514V10.063H15.3403C15.3419 10.0738 15.3435 10.0845 15.3451 10.0953C15.4131 10.5564 15.4471 11.03 15.4471 11.5161C15.4471 11.9137 15.4251 12.3031 15.381 12.6843Z" fill="#2B2B2B"/>
<path d="M16.8514 12.6843V10.063H15.3403L15.3451 10.0953C15.4131 10.5564 15.4471 11.03 15.4471 11.5161C15.4471 11.9137 15.4251 12.3031 15.381 12.6843H16.8514Z" fill="#2B2B2B"/>
</g>
<defs>
<linearGradient id="paint0_linear_68_15" x1="-0.000109795" y1="6.73719e-08" x2="5.83385" y2="41.5064" gradientUnits="userSpaceOnUse">
<stop stop-color="#675AFF"/>
<stop offset="1" stop-color="#8F85FF"/>
</linearGradient>
<clipPath id="clip0_68_15">
<rect width="150" height="23" fill="white"/>
</clipPath>
</defs>
</svg>
